<svg xmlns="http://www.w3.org/2000/svg" xmlns:xlink="http://www.w3.org/1999/xlink" viewBox="0 0 296.47 71.68"><defs><style>.cls-1{fill:url(#linear-gradient);}.cls-2{fill:#fff;}.cls-3{fill:url(#linear-gradient-2);}.cls-4{fill:url(#linear-gradient-3);}.cls-5{fill:#3c445b;}</style><linearGradient id="linear-gradient" x1="34.1" y1="71.25" x2="34.1" gradientUnits="userSpaceOnUse"><stop offset="0" stop-color="#3c445b"/><stop offset="0.21" stop-color="#3c4b67"/><stop offset="0.58" stop-color="#3a5e88"/><stop offset="0.63" stop-color="#3a618d"/></linearGradient><linearGradient id="linear-gradient-2" x1="46.46" y1="55.82" x2="46.46" y2="16.02" gradientUnits="userSpaceOnUse"><stop offset="0" stop-color="#3a618d"/><stop offset="0.32" stop-color="#3b638f"/><stop offset="0.5" stop-color="#3d6c98"/><stop offset="0.65" stop-color="#427aa6"/><stop offset="0.78" stop-color="#488db9"/><stop offset="0.89" stop-color="#50a7d3"/><stop offset="1" stop-color="#5ac6f2"/></linearGradient><linearGradient id="linear-gradient-3" x1="50.6" y1="49.02" x2="50.6" y2="22.83" gradientUnits="userSpaceOnUse"><stop offset="0" stop-color="#ed1c24"/><stop offset="0.28" stop-color="#ed2024"/><stop offset="1" stop-color="#ee2424"/></linearGradient></defs><title>amex_original</title><g id="Camada_2" data-name="Camada 2"><g id="Layer_1" data-name="Layer 1"><path class="cls-1" d="M68.2,34.1A34.1,34.1,0,1,0,8.88,57h0s.28.33.84.88A34.14,34.14,0,0,0,20.5,65.37c7,3.47,17.28,6.55,31.11,5.76,0,0-6-2.44-4.13-5.65h0A34.1,34.1,0,0,0,68.2,34.1Z"/><ellipse class="cls-2" cx="44.14" cy="35.63" rx="21.4" ry="23.9"/><ellipse class="cls-3" cx="46.46" cy="35.92" rx="17.82" ry="19.9"/><ellipse class="cls-2" cx="48.36" cy="35.95" rx="15.4" ry="17.19"/><ellipse class="cls-4" cx="50.6" cy="35.92" rx="11.73" ry="13.1"/><path class="cls-5" d="M84.14,9.22h24.74q9.36,0,14.11,4.3t4.74,12.77V54.93H95.28q-6.82,0-10.49-3.43t-3.66-9.74q0-7.8,4.21-11.19t14-3.39h15.89V26q0-4.07-2.39-5.72t-8.54-1.65H84.14ZM100.2,45.74h15.12V36.29H101.09q-4.24,0-5.85,1.14t-1.61,4a3.92,3.92,0,0,0,1.29,3.37Q96.21,45.74,100.2,45.74Z"/><path class="cls-5" d="M133,9.22h46.34q10.08,0,14.53,3.94T198.29,26v29H186.13V27.52q0-5-1.52-6.65t-6.27-1.61h-6.78V54.93H159.23V19.26H145.12V54.93H133Z"/><path class="cls-5" d="M226.49,54.93q-11.35,0-17.18-5.78T203.49,32.1q0-11.27,5.85-17.07t17.16-5.8h17.62v9.53h-16q-6.56,0-8.83,1.86t-2.44,6.73h27.24v9.53H216.87q.17,4.91,2.27,6.72t8.92,1.8h16.06v9.53Z"/><path class="cls-5" d="M279.82,32.39,288,21.2h0c1.65-2.14,2.22-2.8,4.71-6.46C298.31,6.52,289.66.1,289.66.1L274.09,21.2h0L272.79,23,263,9.22H249l16.9,22.88L249,54.93h14.07l9.7-13.26,9.66,13.26h14Z"/><path class="cls-5" d="M81.23,62.65H87.7a3,3,0,0,1,2,.55A2.28,2.28,0,0,1,90.35,65v4H88.65V65.2a1.42,1.42,0,0,0-.21-.93,1.23,1.23,0,0,0-.87-.22h-.95v5H84.9V64h-2v5h-1.7Z"/><path class="cls-5" d="M92,62.65h3.45a2.85,2.85,0,0,1,2,.6A2.28,2.28,0,0,1,98.06,65v4H93.54a2.06,2.06,0,0,1-1.47-.48,1.77,1.77,0,0,1-.51-1.36,1.89,1.89,0,0,1,.59-1.56,3.17,3.17,0,0,1,2-.47h2.22V65a.9.9,0,0,0-.33-.8A2.22,2.22,0,0,0,94.79,64H92Zm2.24,5.1h2.11V66.42h-2a1.5,1.5,0,0,0-.82.16.64.64,0,0,0-.22.56.54.54,0,0,0,.18.47A1.33,1.33,0,0,0,94.22,67.74Z"/><path class="cls-5" d="M99.54,62.65h2.83a2.1,2.1,0,0,1,1.39.36,1.63,1.63,0,0,1,.4,1.25v1.06h-1.61V64.5a.71.71,0,0,0-.13-.5,1,1,0,0,0-.61-.13h-.59V69H99.54Z"/><path class="cls-5" d="M105.28,60.33H107v5.38l2.71-3.06h2.13l-3,3.12,3,3.26h-2.27L107,65.93V69h-1.68Z"/><path class="cls-5" d="M115.36,69a3.27,3.27,0,0,1-2.4-.81,3.9,3.9,0,0,1,0-4.77,3.26,3.26,0,0,1,2.39-.81h2.46V64H115.6a2.05,2.05,0,0,0-1.23.26,1.24,1.24,0,0,0-.34.94h3.8v1.33H114a1.27,1.27,0,0,0,.32.94,2.08,2.08,0,0,0,1.25.25h2.24V69Z"/><path class="cls-5" d="M118.27,62.65h1.19V60.33h1.68v2.31h1.78v1.27h-1.78V66.5a1.51,1.51,0,0,0,.24,1,1.08,1.08,0,0,0,.85.28h.69V69h-1.54a1.89,1.89,0,0,1-1.43-.52,2.07,2.07,0,0,1-.49-1.48V63.92h-1.19Z"/><path class="cls-5" d="M125.68,61.92h-1.77V60.33h1.77Zm0,7.11h-1.77V62.65h1.77Z"/><path class="cls-5" d="M127.14,62.65h3.17a3.08,3.08,0,0,1,2.05.54A2.29,2.29,0,0,1,133,65v4h-1.68V65.19a1.36,1.36,0,0,0-.22-.93,1.34,1.34,0,0,0-.89-.21h-1.36v5h-1.69Z"/><path class="cls-5" d="M140.39,68.8a2.71,2.71,0,0,1-.58,1.93,2.42,2.42,0,0,1-1.83.62h-3.3V70h3a1.07,1.07,0,0,0,.74-.23.86.86,0,0,0,.26-.68V69h-1.37a5.27,5.27,0,0,1-1.53-.16,2.37,2.37,0,0,1-.86-.55,2.86,2.86,0,0,1-.7-1.08,3.87,3.87,0,0,1-.25-1.39,3.83,3.83,0,0,1,.25-1.38,2.86,2.86,0,0,1,.7-1.07,2.37,2.37,0,0,1,1-.58,4.83,4.83,0,0,1,1.43-.18h3.07Zm-2.57-1.09h.88V64h-.88a5.93,5.93,0,0,0-.89,0,1.39,1.39,0,0,0-1,.78,2.38,2.38,0,0,0-.18,1,1.88,1.88,0,0,0,.46,1.44A2.41,2.41,0,0,0,137.81,67.71Z"/><path class="cls-5" d="M149.32,69a3.27,3.27,0,0,1-2.4-.81,3.9,3.9,0,0,1,0-4.77,3.27,3.27,0,0,1,2.4-.81h2.46V64h-2.23a2.06,2.06,0,0,0-1.24.26,1.24,1.24,0,0,0-.34.94h3.8v1.33H148a1.28,1.28,0,0,0,.32.94,2.07,2.07,0,0,0,1.24.25h2.24V69Z"/><path class="cls-5" d="M161,67.66h1.79V69h-2.29a4.78,4.78,0,0,1-1.43-.18,2.48,2.48,0,0,1-1-.58,3.12,3.12,0,0,1-.7-1.07,3.57,3.57,0,0,1-.25-1.33,3.78,3.78,0,0,1,.25-1.38,2.92,2.92,0,0,1,.7-1.07,2.56,2.56,0,0,1,1-.58,4.73,4.73,0,0,1,1.42-.18h2.29V64H161a2.46,2.46,0,0,0-1.64.41,1.87,1.87,0,0,0-.45,1.43,2.21,2.21,0,0,0,.19,1,1.46,1.46,0,0,0,.57.62,1.42,1.42,0,0,0,.44.16A6,6,0,0,0,161,67.66Z"/><path class="cls-5" d="M170.27,65.84a3.2,3.2,0,0,1-.91,2.4,3.84,3.84,0,0,1-4.93,0,3.58,3.58,0,0,1,0-4.8,3.82,3.82,0,0,1,4.93,0A3.21,3.21,0,0,1,170.27,65.84Zm-5,0a2.15,2.15,0,0,0,.42,1.42,1.64,1.64,0,0,0,2.38,0,2.54,2.54,0,0,0,0-2.84,1.65,1.65,0,0,0-2.38,0A2.15,2.15,0,0,0,165.27,65.84Z"/><path class="cls-5" d="M171.3,62.65h6.47a3,3,0,0,1,2,.55,2.28,2.28,0,0,1,.62,1.79v4h-1.7V65.2a1.42,1.42,0,0,0-.21-.93,1.24,1.24,0,0,0-.87-.22h-.95v5H175V64h-2v5h-1.7Z"/><path class="cls-5" d="M187.69,69h-3.18a3,3,0,0,1-2-.56,2.28,2.28,0,0,1-.62-1.78v-4h1.68v3.91a1.21,1.21,0,0,0,.22.85,1.32,1.32,0,0,0,.88.21H186v-5h1.68Z"/><path class="cls-5" d="M189.21,62.65h3.17a3.08,3.08,0,0,1,2.05.54A2.28,2.28,0,0,1,195,65v4h-1.68V65.19a1.34,1.34,0,0,0-.22-.93,1.33,1.33,0,0,0-.89-.21h-1.35v5h-1.68Z"/><path class="cls-5" d="M198.24,61.92h-1.77V60.33h1.77Zm0,7.11h-1.77V62.65h1.77Z"/><path class="cls-5" d="M203.17,67.66H205V69h-2.29a4.79,4.79,0,0,1-1.43-.18,2.47,2.47,0,0,1-1-.58,3.11,3.11,0,0,1-.7-1.07,3.59,3.59,0,0,1-.25-1.33,3.77,3.77,0,0,1,.25-1.38,2.89,2.89,0,0,1,.7-1.07,2.54,2.54,0,0,1,1-.58,4.71,4.71,0,0,1,1.41-.18H205V64h-1.79a2.46,2.46,0,0,0-1.64.41,1.86,1.86,0,0,0-.45,1.43,2.27,2.27,0,0,0,.18,1,1.49,1.49,0,0,0,.57.62,1.39,1.39,0,0,0,.44.16A5.94,5.94,0,0,0,203.17,67.66Z"/><path class="cls-5" d="M206.2,62.65h3.45a2.85,2.85,0,0,1,2,.6,2.28,2.28,0,0,1,.66,1.78v4h-4.53a2,2,0,0,1-1.46-.48,1.76,1.76,0,0,1-.51-1.36,1.89,1.89,0,0,1,.59-1.56,3.16,3.16,0,0,1,2-.47h2.22V65a.91.91,0,0,0-.33-.8A2.21,2.21,0,0,0,209,64H206.2Zm2.24,5.1h2.11V66.42h-2a1.5,1.5,0,0,0-.82.16.64.64,0,0,0-.23.56.54.54,0,0,0,.18.47A1.34,1.34,0,0,0,208.45,67.74Z"/><path class="cls-5" d="M217.24,67.66H219V69h-2.29a4.78,4.78,0,0,1-1.43-.18,2.46,2.46,0,0,1-1-.58,3.12,3.12,0,0,1-.7-1.07,3.57,3.57,0,0,1-.25-1.33,3.8,3.8,0,0,1,.25-1.38,3,3,0,0,1,.7-1.07,2.54,2.54,0,0,1,1-.58,4.73,4.73,0,0,1,1.42-.18H219V64h-1.79a2.46,2.46,0,0,0-1.64.41,1.86,1.86,0,0,0-.45,1.43,2.27,2.27,0,0,0,.18,1,1.46,1.46,0,0,0,.57.62,1.44,1.44,0,0,0,.44.16A6,6,0,0,0,217.24,67.66Zm-2.35,3c.32.08.6.14.87.18a4.32,4.32,0,0,0,.66.06.56.56,0,0,0,.36-.09.36.36,0,0,0,.11-.29.26.26,0,0,0-.16-.26,1.29,1.29,0,0,0-.52-.08h-.3V69h.65v.56h.09a1.55,1.55,0,0,1,1,.27.92.92,0,0,1,.34.76,1,1,0,0,1-.37.84,1.65,1.65,0,0,1-1,.3,4.74,4.74,0,0,1-.75-.07,8.07,8.07,0,0,1-.89-.19Z"/><path class="cls-5" d="M220.27,62.65h3.45a2.84,2.84,0,0,1,2,.6,2.29,2.29,0,0,1,.66,1.78v4h-4.53a2.05,2.05,0,0,1-1.46-.48,1.77,1.77,0,0,1-.51-1.36,1.89,1.89,0,0,1,.59-1.56,3.17,3.17,0,0,1,2-.47h2.22V65a.9.9,0,0,0-.33-.8,2.22,2.22,0,0,0-1.19-.23h-2.81Zm1-.84a2.18,2.18,0,0,1,.44-1,1,1,0,0,1,.77-.34h.21l.2,0,.76.19.16,0h.14a.49.49,0,0,0,.33-.12.63.63,0,0,0,.19-.33H225a2,2,0,0,1-.44,1,1,1,0,0,1-.81.37h-.19l-.17,0-.81-.21-.11,0h-.13a.56.56,0,0,0-.36.11.61.61,0,0,0-.19.31Zm1.28,5.94h2.11V66.42h-2a1.5,1.5,0,0,0-.81.16.64.64,0,0,0-.22.56.54.54,0,0,0,.18.47A1.33,1.33,0,0,0,222.51,67.74Z"/><path class="cls-5" d="M234.17,65.84a3.2,3.2,0,0,1-.91,2.4,3.84,3.84,0,0,1-4.93,0,3.58,3.58,0,0,1,0-4.8,3.82,3.82,0,0,1,4.93,0A3.22,3.22,0,0,1,234.17,65.84Zm-5,0a2.15,2.15,0,0,0,.42,1.42,1.64,1.64,0,0,0,2.38,0,2.54,2.54,0,0,0,0-2.84,1.65,1.65,0,0,0-2.38,0A2.13,2.13,0,0,0,229.17,65.84Z"/><path class="cls-5" d="M241.66,61.92h-1.77V60.33h1.77Zm0,7.11h-1.77V62.65h1.77Z"/><path class="cls-5" d="M243.11,62.65h3.17a3.08,3.08,0,0,1,2.05.54,2.29,2.29,0,0,1,.61,1.79v4h-1.69V65.19a1.35,1.35,0,0,0-.22-.93,1.33,1.33,0,0,0-.89-.21H244.8v5h-1.68Z"/><path class="cls-5" d="M249.74,62.65h1.19V60.33h1.69v2.31h1.78v1.27h-1.78V66.5a1.51,1.51,0,0,0,.24,1,1.09,1.09,0,0,0,.85.28h.69V69h-1.54a1.89,1.89,0,0,1-1.43-.52,2.05,2.05,0,0,1-.5-1.48V63.92h-1.19Z"/><path class="cls-5" d="M258.24,69a3.27,3.27,0,0,1-2.4-.81,3.89,3.89,0,0,1,0-4.77,3.26,3.26,0,0,1,2.39-.81h2.46V64h-2.23a2.06,2.06,0,0,0-1.24.26,1.23,1.23,0,0,0-.34.94h3.8v1.33h-3.8a1.28,1.28,0,0,0,.32.94,2.08,2.08,0,0,0,1.25.25h2.24V69Z"/><path class="cls-5" d="M267.75,68.8a2.71,2.71,0,0,1-.58,1.93,2.41,2.41,0,0,1-1.82.62H262V70h3a1.09,1.09,0,0,0,.75-.23.87.87,0,0,0,.26-.68V69h-1.37a5.26,5.26,0,0,1-1.53-.16,2.34,2.34,0,0,1-.86-.55,2.87,2.87,0,0,1-.7-1.08,3.87,3.87,0,0,1-.25-1.39,3.83,3.83,0,0,1,.25-1.38,2.87,2.87,0,0,1,.7-1.07,2.36,2.36,0,0,1,1-.57,4.86,4.86,0,0,1,1.44-.18h3.07Zm-2.57-1.09h.88V64h-.88a5.88,5.88,0,0,0-.89,0,1.38,1.38,0,0,0-1,.78,2.43,2.43,0,0,0-.18,1,1.88,1.88,0,0,0,.46,1.44A2.41,2.41,0,0,0,265.18,67.71Z"/><path class="cls-5" d="M269.16,62.65H272a2.1,2.1,0,0,1,1.39.36,1.62,1.62,0,0,1,.4,1.25v1.06h-1.61V64.5A.7.7,0,0,0,272,64a1,1,0,0,0-.6-.13h-.59V69h-1.69Z"/><path class="cls-5" d="M275,62.65h3.45a2.85,2.85,0,0,1,2,.6,2.27,2.27,0,0,1,.66,1.78v4h-4.53a2.06,2.06,0,0,1-1.46-.48,1.76,1.76,0,0,1-.51-1.36,1.89,1.89,0,0,1,.59-1.56,3.15,3.15,0,0,1,2-.47h2.22V65a.9.9,0,0,0-.34-.8,2.21,2.21,0,0,0-1.19-.23H275Zm2.24,5.1h2.11V66.42h-2a1.5,1.5,0,0,0-.81.16.64.64,0,0,0-.23.56.53.53,0,0,0,.18.47A1.33,1.33,0,0,0,277.22,67.74Z"/><path class="cls-5" d="M288.44,69h-3.23a3,3,0,0,1-2.29-.86,3.36,3.36,0,0,1-.82-2.41,3.78,3.78,0,0,1,.17-1.16,3.07,3.07,0,0,1,.52-1,2.38,2.38,0,0,1,1-.75,4.33,4.33,0,0,1,1.53-.23h1.44V60.33h1.68Zm-1.68-1.37V64h-1a2,2,0,0,0-1.45.43,2,2,0,0,0-.43,1.43,2,2,0,0,0,.39,1.38,1.84,1.84,0,0,0,1.35.41Z"/><path class="cls-5" d="M290,62.65h3.45a2.85,2.85,0,0,1,2,.6,2.29,2.29,0,0,1,.66,1.78v4H291.6a2.05,2.05,0,0,1-1.46-.48,1.77,1.77,0,0,1-.51-1.36,1.89,1.89,0,0,1,.59-1.56,3.16,3.16,0,0,1,2-.47h2.22V65a.9.9,0,0,0-.33-.8,2.21,2.21,0,0,0-1.19-.23H290Zm2.24,5.1h2.11V66.42h-2a1.5,1.5,0,0,0-.81.16.64.64,0,0,0-.22.56.53.53,0,0,0,.18.47A1.33,1.33,0,0,0,292.28,67.74Z"/></g></g></svg>