<svg xmlns="http://www.w3.org/2000/svg" viewBox="0 0 192.45 199.4"><defs><style>.cls-1{fill:#fff;}</style></defs><title>amex_oficial_branco</title><g id="Camada_2" data-name="Camada 2"><g id="Layer_1" data-name="Layer 1"><path class="cls-1" d="M160.72,64.49A64.5,64.5,0,1,0,48.53,107.9h0s.54.63,1.59,1.67A64.63,64.63,0,0,0,70.5,123.63c13.25,6.58,32.68,12.4,58.83,10.9,0,0-11.34-4.61-7.82-10.69h0A64.51,64.51,0,0,0,160.72,64.49Zm-45.51,48.09c-22.36,0-40.48-20.24-40.48-45.2s18.12-45.2,40.48-45.2,40.48,20.24,40.48,45.2S137.57,112.58,115.22,112.58Z"/><path class="cls-1" d="M119.61,30.31c-18.62,0-33.71,16.85-33.71,37.64s15.09,37.64,33.71,37.64,33.71-16.85,33.71-37.64S138.23,30.31,119.61,30.31Zm3.58,70.2c-16.09,0-29.12-14.56-29.12-32.52s13-32.52,29.12-32.52S152.32,50,152.32,68,139.28,100.51,123.2,100.51Z"/><ellipse class="cls-1" cx="127.44" cy="67.94" rx="22.18" ry="24.77"/><path class="cls-1" d="M2.69,143.58H24.8q8.37,0,12.61,3.84t4.24,11.42v25.59h-29q-6.1,0-9.37-3.07T0,172.66q0-7,3.77-10t12.51-3h14.2v-1q0-3.63-2.14-5.11T20.71,152h-18ZM17,176.22H30.55v-8.44H17.83q-3.79,0-5.22,1a4.06,4.06,0,0,0-1.44,3.56,3.51,3.51,0,0,0,1.15,3Q13.48,176.22,17,176.22Z"/><path class="cls-1" d="M46.33,143.58H87.75q9,0,13,3.52t4,11.43v25.9H93.84v-24.5q0-4.51-1.36-5.94t-5.61-1.44H80.82v31.88h-11V152.55H57.19v31.88H46.33Z"/><path class="cls-1" d="M129.91,184.43q-10.15,0-15.35-5.17T109.35,164q0-10.07,5.23-15.26t15.33-5.19h15.75v8.52H131.39q-5.87,0-7.89,1.67t-2.18,6h24.35v8.52H121.32q.15,4.39,2,6t8,1.61h14.35v8.52Z"/><path class="cls-1" d="M177.57,164.29l7.3-10h0c1.47-1.92,2-2.5,4.21-5.77,5-7.35-2.74-13.08-2.74-13.08l-13.92,18.85h0l-1.17,1.6-8.75-12.31H150L165.15,164,150,184.43h12.57l8.67-11.85,8.63,11.85h12.53Z"/><path class="cls-1" d="M.09,191.33H5.87a2.72,2.72,0,0,1,1.81.49,2,2,0,0,1,.55,1.6V197H6.72v-3.42a1.27,1.27,0,0,0-.19-.83,1.1,1.1,0,0,0-.78-.2H4.9V197H3.36v-4.45H1.6V197H.09Z"/><path class="cls-1" d="M9.69,191.33h3.09a2.54,2.54,0,0,1,1.76.54,2,2,0,0,1,.59,1.59V197h-4a1.84,1.84,0,0,1-1.31-.43,1.58,1.58,0,0,1-.46-1.21A1.69,1.69,0,0,1,9.84,194a2.82,2.82,0,0,1,1.75-.42h2v-.14a.81.81,0,0,0-.3-.71,2,2,0,0,0-1.06-.21H9.69Zm2,4.56h1.89v-1.18H11.81a1.35,1.35,0,0,0-.73.14.58.58,0,0,0-.2.5.48.48,0,0,0,.16.42A1.2,1.2,0,0,0,11.7,195.88Z"/><path class="cls-1" d="M16.45,191.33H19a1.88,1.88,0,0,1,1.24.32,1.45,1.45,0,0,1,.36,1.12v1H19.14V193a.63.63,0,0,0-.12-.45.86.86,0,0,0-.54-.11H18V197H16.45Z"/><path class="cls-1" d="M21.58,189.26h1.5v4.81l2.42-2.74h1.91l-2.64,2.79L27.41,197h-2l-2.3-2.77V197h-1.5Z"/><path class="cls-1" d="M30.59,197a2.93,2.93,0,0,1-2.14-.72,3.48,3.48,0,0,1,0-4.26,2.92,2.92,0,0,1,2.14-.72h2.2v1.19h-2a1.84,1.84,0,0,0-1.1.23,1.1,1.1,0,0,0-.3.84h3.4v1.19h-3.4a1.13,1.13,0,0,0,.28.84,1.86,1.86,0,0,0,1.11.22h2V197Z"/><path class="cls-1" d="M33.19,191.33h1.06v-2.07h1.5v2.07h1.59v1.14H35.75v2.3a1.35,1.35,0,0,0,.22.88,1,1,0,0,0,.76.25h.62V197H36a1.7,1.7,0,0,1-1.28-.46,1.85,1.85,0,0,1-.44-1.32v-2.78H33.19Z"/><path class="cls-1" d="M39.81,190.68H38.23v-1.42h1.58Zm0,6.35H38.23v-5.7h1.58Z"/><path class="cls-1" d="M41.11,191.33h2.83a2.74,2.74,0,0,1,1.83.49,2,2,0,0,1,.55,1.6V197h-1.5V193.6a1.22,1.22,0,0,0-.2-.83,1.19,1.19,0,0,0-.8-.19H42.62V197H41.11Z"/><path class="cls-1" d="M53,196.82a2.43,2.43,0,0,1-.52,1.72,2.17,2.17,0,0,1-1.63.55h-3v-1.16h2.69a1,1,0,0,0,.67-.21.77.77,0,0,0,.23-.61V197H50.21a4.67,4.67,0,0,1-1.37-.14,2.1,2.1,0,0,1-.77-.49,2.55,2.55,0,0,1-.62-1,3.44,3.44,0,0,1-.22-1.25,3.4,3.4,0,0,1,.22-1.23,2.56,2.56,0,0,1,.62-1,2.14,2.14,0,0,1,.86-.51,4.34,4.34,0,0,1,1.28-.16H53Zm-2.3-1h.78v-3.3h-.78a5.43,5.43,0,0,0-.79,0,1.29,1.29,0,0,0-.4.14,1.26,1.26,0,0,0-.51.56,2.12,2.12,0,0,0-.16.9,1.68,1.68,0,0,0,.41,1.29A2.17,2.17,0,0,0,50.66,195.85Z"/><path class="cls-1" d="M60.94,197a2.91,2.91,0,0,1-2.14-.72,3.47,3.47,0,0,1,0-4.26,2.92,2.92,0,0,1,2.14-.72h2.2v1.19h-2a1.83,1.83,0,0,0-1.1.23,1.1,1.1,0,0,0-.3.84h3.4v1.19h-3.4a1.13,1.13,0,0,0,.28.84,1.85,1.85,0,0,0,1.11.22h2V197Z"/><path class="cls-1" d="M71.4,195.81H73V197H71a4.25,4.25,0,0,1-1.28-.16,2.2,2.2,0,0,1-.87-.52,2.73,2.73,0,0,1-.62-1A3.19,3.19,0,0,1,68,194.2a3.38,3.38,0,0,1,.22-1.23,2.59,2.59,0,0,1,.63-1,2.27,2.27,0,0,1,.88-.52,4.24,4.24,0,0,1,1.27-.16h2v1.23H71.4a2.2,2.2,0,0,0-1.46.37,1.67,1.67,0,0,0-.4,1.28,2,2,0,0,0,.17.87,1.31,1.31,0,0,0,.51.56,1.26,1.26,0,0,0,.39.14A5.33,5.33,0,0,0,71.4,195.81Z"/><path class="cls-1" d="M79.66,194.18a2.86,2.86,0,0,1-.82,2.14,3.43,3.43,0,0,1-4.41,0,3.2,3.2,0,0,1,0-4.29,3.42,3.42,0,0,1,4.41,0A2.87,2.87,0,0,1,79.66,194.18Zm-4.47,0a1.92,1.92,0,0,0,.38,1.27,1.47,1.47,0,0,0,2.12,0,2.27,2.27,0,0,0,0-2.53,1.48,1.48,0,0,0-2.12,0A1.92,1.92,0,0,0,75.19,194.18Z"/><path class="cls-1" d="M80.58,191.33h5.78a2.71,2.71,0,0,1,1.81.49,2,2,0,0,1,.55,1.6V197H87.21v-3.42a1.27,1.27,0,0,0-.19-.83,1.1,1.1,0,0,0-.78-.2H85.4V197H83.86v-4.45H82.1V197H80.58Z"/><path class="cls-1" d="M95.24,197H92.4a2.69,2.69,0,0,1-1.81-.5,2,2,0,0,1-.56-1.59v-3.62h1.5v3.49a1.08,1.08,0,0,0,.2.76,1.18,1.18,0,0,0,.79.19h1.21v-4.44h1.51Z"/><path class="cls-1" d="M96.59,191.33h2.83a2.75,2.75,0,0,1,1.83.49,2,2,0,0,1,.55,1.6V197h-1.5V193.6a1.2,1.2,0,0,0-.2-.83,1.19,1.19,0,0,0-.8-.19H98.09V197h-1.5Z"/><path class="cls-1" d="M104.66,190.68h-1.58v-1.42h1.58Zm0,6.35h-1.58v-5.7h1.58Z"/><path class="cls-1" d="M109.07,195.81h1.6V197h-2a4.26,4.26,0,0,1-1.28-.16,2.2,2.2,0,0,1-.87-.52,2.77,2.77,0,0,1-.62-1,3.21,3.21,0,0,1-.22-1.19,3.36,3.36,0,0,1,.22-1.23,2.6,2.6,0,0,1,.62-1,2.26,2.26,0,0,1,.88-.52,4.22,4.22,0,0,1,1.26-.16h2v1.23h-1.6a2.2,2.2,0,0,0-1.46.37,1.67,1.67,0,0,0-.4,1.28,2,2,0,0,0,.16.87,1.33,1.33,0,0,0,.51.56,1.22,1.22,0,0,0,.39.14A5.27,5.27,0,0,0,109.07,195.81Z"/><path class="cls-1" d="M111.78,191.33h3.09a2.55,2.55,0,0,1,1.76.54,2,2,0,0,1,.59,1.59V197h-4a1.83,1.83,0,0,1-1.31-.43,1.58,1.58,0,0,1-.46-1.21,1.69,1.69,0,0,1,.53-1.39,2.82,2.82,0,0,1,1.75-.42h2v-.14a.81.81,0,0,0-.3-.71,2,2,0,0,0-1.07-.21h-2.52Zm2,4.56h1.89v-1.18h-1.78a1.35,1.35,0,0,0-.73.14.58.58,0,0,0-.2.5.48.48,0,0,0,.16.42A1.2,1.2,0,0,0,113.78,195.88Z"/><path class="cls-1" d="M121.64,195.81h1.6V197h-2a4.26,4.26,0,0,1-1.28-.16,2.2,2.2,0,0,1-.87-.52,2.79,2.79,0,0,1-.62-1,3.19,3.19,0,0,1-.22-1.19,3.4,3.4,0,0,1,.22-1.23,2.65,2.65,0,0,1,.63-1,2.27,2.27,0,0,1,.88-.52,4.23,4.23,0,0,1,1.27-.16h2v1.23h-1.6a2.2,2.2,0,0,0-1.46.37,1.67,1.67,0,0,0-.4,1.28,2,2,0,0,0,.16.87,1.31,1.31,0,0,0,.51.56,1.27,1.27,0,0,0,.39.14A5.31,5.31,0,0,0,121.64,195.81Zm-2.1,2.71c.28.07.54.12.77.16a3.81,3.81,0,0,0,.59.06.5.5,0,0,0,.32-.08.32.32,0,0,0,.1-.26.23.23,0,0,0-.14-.23,1.13,1.13,0,0,0-.47-.07h-.27V197H121v.5h.08a1.38,1.38,0,0,1,.87.24.82.82,0,0,1,.3.68.91.91,0,0,1-.33.75,1.48,1.48,0,0,1-.94.26,4.36,4.36,0,0,1-.67-.06,7.4,7.4,0,0,1-.8-.17Z"/><path class="cls-1" d="M124.35,191.33h3.09a2.54,2.54,0,0,1,1.76.54,2,2,0,0,1,.59,1.59V197h-4a1.84,1.84,0,0,1-1.31-.43,1.58,1.58,0,0,1-.46-1.21,1.69,1.69,0,0,1,.53-1.39,2.83,2.83,0,0,1,1.75-.42h2v-.14a.8.8,0,0,0-.3-.71,2,2,0,0,0-1.06-.21h-2.51Zm.86-.75a2,2,0,0,1,.4-.92.88.88,0,0,1,.69-.3h.19l.18,0,.68.17.14,0h.13a.44.44,0,0,0,.3-.1.56.56,0,0,0,.17-.29h.53a1.82,1.82,0,0,1-.4.93.93.93,0,0,1-.73.33h-.17l-.15,0-.72-.18-.1,0h-.11a.5.5,0,0,0-.32.1.54.54,0,0,0-.17.28Zm1.15,5.31h1.89v-1.18h-1.78a1.35,1.35,0,0,0-.73.14.58.58,0,0,0-.2.5.48.48,0,0,0,.16.42A1.2,1.2,0,0,0,126.35,195.88Z"/><path class="cls-1" d="M136.78,194.18a2.86,2.86,0,0,1-.82,2.14,3.43,3.43,0,0,1-4.41,0,3.2,3.2,0,0,1,0-4.29,3.41,3.41,0,0,1,4.4,0A2.87,2.87,0,0,1,136.78,194.18Zm-4.47,0a1.92,1.92,0,0,0,.38,1.27,1.47,1.47,0,0,0,2.13,0,2.28,2.28,0,0,0,0-2.53,1.48,1.48,0,0,0-2.12,0A1.9,1.9,0,0,0,132.31,194.18Z"/><path class="cls-1" d="M143.46,190.68h-1.58v-1.42h1.58Zm0,6.35h-1.58v-5.7h1.58Z"/><path class="cls-1" d="M144.77,191.33h2.83a2.75,2.75,0,0,1,1.83.49,2,2,0,0,1,.55,1.6V197h-1.51V193.6a1.21,1.21,0,0,0-.2-.83,1.19,1.19,0,0,0-.79-.19h-1.21V197h-1.5Z"/><path class="cls-1" d="M150.69,191.33h1.06v-2.07h1.51v2.07h1.59v1.14h-1.59v2.3a1.35,1.35,0,0,0,.21.88,1,1,0,0,0,.76.25h.62V197h-1.37a1.69,1.69,0,0,1-1.28-.46,1.83,1.83,0,0,1-.44-1.32v-2.78h-1.06Z"/><path class="cls-1" d="M158.28,197a2.93,2.93,0,0,1-2.14-.72,3.48,3.48,0,0,1,0-4.26,2.92,2.92,0,0,1,2.14-.72h2.2v1.19h-2a1.84,1.84,0,0,0-1.1.23,1.1,1.1,0,0,0-.3.84h3.4v1.19h-3.4a1.14,1.14,0,0,0,.28.84,1.86,1.86,0,0,0,1.11.22h2V197Z"/><path class="cls-1" d="M166.79,196.82a2.43,2.43,0,0,1-.52,1.72,2.16,2.16,0,0,1-1.63.55h-3v-1.16h2.69a1,1,0,0,0,.67-.21.78.78,0,0,0,.23-.61V197H164a4.68,4.68,0,0,1-1.37-.14,2.08,2.08,0,0,1-.77-.49,2.55,2.55,0,0,1-.63-1,3.44,3.44,0,0,1-.22-1.25,3.4,3.4,0,0,1,.22-1.23,2.57,2.57,0,0,1,.63-1,2.13,2.13,0,0,1,.85-.51,4.38,4.38,0,0,1,1.29-.16h2.74Zm-2.3-1h.78v-3.3h-.78a5.32,5.32,0,0,0-.79,0,1.28,1.28,0,0,0-.4.14,1.26,1.26,0,0,0-.51.56,2.17,2.17,0,0,0-.16.9,1.68,1.68,0,0,0,.41,1.29A2.16,2.16,0,0,0,164.49,195.85Z"/><path class="cls-1" d="M168,191.33h2.53a1.88,1.88,0,0,1,1.24.32,1.45,1.45,0,0,1,.36,1.12v1h-1.44V193a.62.62,0,0,0-.12-.45.85.85,0,0,0-.54-.11h-.53V197H168Z"/><path class="cls-1" d="M173.25,191.33h3.08a2.54,2.54,0,0,1,1.76.54,2,2,0,0,1,.59,1.59V197h-4a1.84,1.84,0,0,1-1.31-.43,1.58,1.58,0,0,1-.46-1.21,1.69,1.69,0,0,1,.52-1.39,2.81,2.81,0,0,1,1.75-.42h2v-.14a.81.81,0,0,0-.3-.71,2,2,0,0,0-1.06-.21h-2.51Zm2,4.56h1.88v-1.18h-1.78a1.34,1.34,0,0,0-.73.14.57.57,0,0,0-.2.5.48.48,0,0,0,.16.42A1.2,1.2,0,0,0,175.25,195.88Z"/><path class="cls-1" d="M185.28,197h-2.89a2.7,2.7,0,0,1-2-.77,3,3,0,0,1-.73-2.15,3.37,3.37,0,0,1,.15-1,2.75,2.75,0,0,1,.46-.87,2.13,2.13,0,0,1,.89-.67,3.88,3.88,0,0,1,1.37-.2h1.29v-2.07h1.5Zm-1.5-1.22v-3.25h-.91a1.8,1.8,0,0,0-1.3.38,1.76,1.76,0,0,0-.38,1.28,1.74,1.74,0,0,0,.35,1.23,1.64,1.64,0,0,0,1.21.36Z"/><path class="cls-1" d="M186.71,191.33h3.09a2.54,2.54,0,0,1,1.76.54,2,2,0,0,1,.59,1.59V197h-4a1.84,1.84,0,0,1-1.31-.43,1.58,1.58,0,0,1-.46-1.21,1.69,1.69,0,0,1,.53-1.39,2.81,2.81,0,0,1,1.75-.42h2v-.14a.8.8,0,0,0-.3-.71,2,2,0,0,0-1.07-.21h-2.51Zm2,4.56h1.89v-1.18h-1.78a1.35,1.35,0,0,0-.73.14.57.57,0,0,0-.2.5.48.48,0,0,0,.16.42A1.19,1.19,0,0,0,188.71,195.88Z"/></g></g></svg>