<svg xmlns="http://www.w3.org/2000/svg" viewBox="0 0 766.66 349.99"><defs><style>.cls-1{fill:#5bc5f2;}</style></defs><title>Slogan Amex - Site</title><g id="Camada_2" data-name="Camada 2"><g id="Camada_1-2" data-name="Camada 1"><path class="cls-1" d="M57,140.5a27.47,27.47,0,0,1-.69,9.57c15.3-14.91,38.21-22.18,54.3-19.48,13.92-29.45,25.12-62.95,29.21-93.49l0,.11A3.26,3.26,0,0,1,141.45,35c.71-1.26,2.12-2,4.12-2.19,12.61-1.48,16.59,7,17.74,16.78.16,1.37.43,3.68.51,5.27C164,74.34,160.33,105,157,133.77c11.12-1.51,21.1-9.08,29-22.79,2.2-2.08,3.72-1,4.41,1.29-9.34,18.47-20.77,24.6-34.18,27.46a191.86,191.86,0,0,0,1.11,33.12c3.07,26.18,12.08,51.12,32.47,48.73,4.1-.48,9.21-2.36,14.48-5.53,2,.4,3.23,1.11,3.35,2.16a7.6,7.6,0,0,1-1.45,4,57.45,57.45,0,0,1-22.42,7.85c-29.12,3.42-43.2-27.54-47.11-60.87a182,182,0,0,1-1-28.34A209.84,209.84,0,0,1,114,138.28c-10,20.58-22.61,40.7-35.92,55.37-8.79,9.56-18.69,18.72-32.88,20.38C24.41,216.47,3.36,202.32.35,176.67-2.22,154.8,9.54,127,34.25,124.09,46.55,122.65,55.7,129.78,57,140.5Zm49.94-3.09A56.09,56.09,0,0,0,93,137.33c-16.82,2-30.72,12.46-41.57,28.12a6.71,6.71,0,0,1-2.82,1.39c-1.68.2-3.37-.56-3.48-2.47,4.47-6.38,8.32-15.36,6-23.61-2.92-5.73-7.59-7.42-11-7.34-10.56.81-20.53,20.31-21.47,38.65-1,15,8.4,38,27.85,35.73,4.31-.5,8.37-2.26,12.84-5,15.27-10.64,32.74-35.28,47.81-64.87Zm34.41-71.82A475.77,475.77,0,0,1,117,132c6.53,1.15,12.52,2.26,19,2.89,3-29,5-52.49,6-69.12Z"/><path class="cls-1" d="M256.09,93.69a2.19,2.19,0,0,0-.53,0c-6.52.77-15.27,19.81-21.7,34-2.48,5.19-4.52,9.59-6.11,12.44l.09-.12A84.53,84.53,0,0,0,225.59,158a21.57,21.57,0,0,0,3.17,10.61,2.13,2.13,0,0,1,.25,1.25c0,1.06-.79,1.48-2.26,1.65-10.09,1.19-14.28-5.46-15.29-14.08-.11-.95-.27-2.32-.28-3.28-.05-11.29,3.59-26.63,6.51-38.06,2.07-7.81,3.73-14.51,3.6-17.47-.06-1.38-.33-1.89-1.17-1.79-7.46.88-20,30-24.67,40.41v-.1L194,140.3h.11a88.76,88.76,0,0,0-2.25,20.83,31.74,31.74,0,0,0,2.17,10.3,5.36,5.36,0,0,1,.51,1.64c-.08,1.08-1,1.51-2.36,1.67-10.2,1.19-13.77-7.45-14.78-16.07-.16-1.36-.23-2.85-.29-4.33-.27-9.56.94-20.15,2.29-29.47.91-7.68,2-15.15,1.78-20.25a24.2,24.2,0,0,0-1-5.21,11.16,11.16,0,0,1-.44-1.86c0-1.82,1.61-2.64,3.61-2.88,10.62-1.24,13.52,6.2,13.8,13.2a61.11,61.11,0,0,1-.9,11.4c-.24,2.48-.44,2.61-.53,4.54,1.5-2.63,3-5.68,4.51-8.84,6.18-12.67,13-26.9,24.18-28.21,7.89-.92,10.85,5.23,11.22,12,.14,4.88-.84,11.07-2.25,17.21.6-1.25,1-2,1.64-3.29,6.36-13,13.47-27.79,24.83-29.13,7.67-.9,10.44,4.53,10.79,12.06.29,8-1.85,18.76-4.3,28.75-2.09,9.41-4.19,18.82-4,25.19,0,2.77.94,8,3.35,7.7,6.11-.61,20-37.3,22.46-43.88a1.83,1.83,0,0,1,.24-.66l.24-.67h-.1c.47-1.44.78-2.44,2.35-2.62a2.94,2.94,0,0,1,2.87,1.69l-2.42,6.68c-6.45,17.7-17.07,47.08-29.89,48.59-9.57,1.12-13.62-4.37-14.59-12.57-.11-.95-.16-2.33-.18-3.39,0-11.08,3.62-26.33,6.55-37.75,1.95-7.91,3.64-14.39,3.61-17.37C256.82,94.46,256.54,93.85,256.09,93.69Z"/><path class="cls-1" d="M369.18,100.13c2.3-2.18,3.91-1.2,5.32-.09-4.24,12-14.44,29.51-27.94,42.5-7.59,7.07-19.12,16-30.16,17.29a21.72,21.72,0,0,1-15.9-4.74c-.43,5.48-.79,10.53-1.26,14.75-1.32,15.07-2.35,24.46-2,39.88a51.44,51.44,0,0,0,.44,5.6,52.21,52.21,0,0,0,1.8,9,17.19,17.19,0,0,1,.46,2.08c0,1.5-1,1.92-2.11,2.06-9.67,1.13-14.27-10.8-15.69-22.89-.24-2.1-.42-4.53-.46-6.66-.16-13.19,2.06-40.63,3.83-61.83,1.48-18.29,3.16-36.61,2.9-43.4a31.71,31.71,0,0,0-1.06-7.23,12.77,12.77,0,0,1-.43-2.72c-.16-2.33,1.54-3.27,3.54-3.51,8.72-1,12.06,5.62,13.05,14,.17,1.47.26,3.17.34,4.76a18.54,18.54,0,0,1,.09,2.55c4.7-12.6,12.48-24.38,23-28.49A17.08,17.08,0,0,1,331.45,72c10-1.17,15.69,6.58,18.33,15.43a45.84,45.84,0,0,1,1.57,7.92,86.4,86.4,0,0,1-5.52,40.19c9.31-9.73,18.3-22.08,23.27-35.13Zm-67.83,46.76c3.51,4.49,9.5,7.41,15.22,5.35,13.72-4.8,17.34-38.48,15.46-54.46a33.75,33.75,0,0,0-1-5c-1-3.93-3.6-8.85-8.71-7-9.83,3.39-17,28.22-19.24,39.45C302.6,132.14,302.06,139.34,301.35,146.89Z"/><path class="cls-1" d="M408.38,47.25c.52,18.91-12.64,40.28-25.6,55.23a151.35,151.35,0,0,0-1.66,24,40.08,40.08,0,0,0,.37,5c.79,6.73,3,11.8,7.61,11.26,11.46-1.35,20.24-26.36,25-40.14a51,51,0,0,1,3.07-8.35,2.89,2.89,0,0,1,1.62-.72,2.8,2.8,0,0,1,2.76,1.7l-2.72,7.67h.1c-6.62,19.85-16.08,47.29-31.54,49.1-13.66,1.61-18.74-10.8-20.15-22.79a51.05,51.05,0,0,1-.46-5.7l0,.11c-.67-20.17,6.38-88.14,31-91C404.85,31.68,408.1,41.21,408.38,47.25Zm-24.33,46c5.17-5.83,19.86-27.8,19.46-43.95,0-3.63-1.16-8.92-3.26-8.68C395.73,41.17,388,63.93,384.05,93.27Z"/><path class="cls-1" d="M419.89,77.24a16.78,16.78,0,0,0,0-3,8.06,8.06,0,0,1,0-2c.31-1.84,2.18-2.28,4.24-2,6,1.43,8.93,3.43,9.4,7.43A26.57,26.57,0,0,1,433,85c-1.78,9.37-4.21,27.67-4.21,39.5.05,1.38.16,3.18.3,4.33.58,4.94,1.9,8.09,4.23,7.93,5.89-.69,15.37-25.25,20.67-39.09,1.39-3.58,2.45-6.36,3.31-8.17a3.92,3.92,0,0,1,1.51-.71c1.05-.12,2,.62,2.88,1.79l-.9,2.35c-6.2,18-18.88,51.66-31.07,53.1-9.78,1.14-13.92-6.9-15.15-17.41-.2-1.68-.31-3.48-.4-5.18-.45-13.8,2.1-27.53,4.86-41.28l.9-5ZM438.57,54.8c.14,4.78-4,8-7.85,8.48-3.36.4-6.62-2-7.09-7.8-.11-4.57,2.24-10,6.23-10.43,1.79-.21,3.91.61,5.89,2.94A12.77,12.77,0,0,1,438.57,54.8Z"/><path class="cls-1" d="M507.92,87.16a5.71,5.71,0,0,1-2.52,1.25,2.88,2.88,0,0,1-2.36-1,20.33,20.33,0,0,0,.44-4.42C503,75.8,499.07,67.2,491.4,68.1c-14.82,1.74-26.64,41.81-26.25,54.24.15,4,1.22,9.45,6.16,8.87,8.83-1,17.61-22.43,21.66-33.35.24-1.62,1.25-3.87.75-6.37-.44-1.87,1.71-2.65,3.8-3,8.39-.23,11.52,2.81,12.46,7.17s-.3,10.16-.51,14.77c-.19,2.9-1,19.73,3.72,14.38,6-7.63,12.9-24.43,17.15-35.48,1.18-3.55,2.48-7,3.41-9a4.28,4.28,0,0,1,1.54-.5,2.81,2.81,0,0,1,2.76,1.7l-.78,2.44c-4.41,12.34-13.78,38.81-22.71,48.06a18.4,18.4,0,0,1-10.35,5.37c-10,1.17-12.75-15.13-12.52-22.29a5.89,5.89,0,0,1,0-1.07c-6.1,13.4-15.47,27.08-27.25,28.46-11,1.29-15.59-6.59-16.71-16.16a28.71,28.71,0,0,1-.25-3.06c.15-21.44,15.89-61.65,39.75-64.45,12.3-1.45,20.87,10.66,21.39,22.43A24.67,24.67,0,0,1,508,87Z"/><path class="cls-1" d="M548.05,82.23c1.41-2.5,2.65-5.53,4.23-8.48,6.08-12.66,13.24-27,24.38-28.34,7.78-.91,10.64,4.4,10.9,12.05.28,7.85-2,18.56-4.4,28.76-2,9.29-4,19-4,25.08.23,2.85,1.06,8.08,3.37,7.81,6.11-.61,20-37.3,22.47-43.77a1.56,1.56,0,0,1,.24-.67l.32-.89c.48-1.34.79-2.33,2.26-2.5A2.84,2.84,0,0,1,610.7,73c-.75,1.79-1.82,4.47-2.59,7-6.37,17.48-16.69,46.72-29.72,48.25-9.67,1.14-13.65-4.58-14.62-12.88-.1-.84-.25-2.1-.26-3.06,0-11,3.63-26.33,6.55-37.75,2-7.91,3.64-14.39,3.62-17.27,0-1.38-.43-1.87-1.16-1.78-7.57.89-20.15,30-24.78,40.42l0-.1L546.39,99h.1a76,76,0,0,0-2.35,20.84c0,1.17.16,2.22.28,3.27a26.34,26.34,0,0,0,1.8,7.15,4.74,4.74,0,0,1,.49,1.43c.13,1.16-.78,1.58-2.14,1.74-10.2,1.2-13.88-7.43-14.89-16.05-.16-1.36-.23-2.85-.3-4.33-.33-9.23,1.06-21,2.33-30.12,1-7.68,1.89-14.82,1.75-19.6a23.53,23.53,0,0,0-1-5.21A14.93,14.93,0,0,1,532,56.3c-.11-1.9,1.71-2.76,3.7-3,10.62-1.25,13.41,6.21,13.7,13.21a62,62,0,0,1-.79,11.39C548.37,79.53,548.11,81,548.05,82.23Z"/><path class="cls-1" d="M642.5,104.19c-.15-1.26-.22-2.74-.3-4.33a20.37,20.37,0,0,1-.12-4.68c-6.26,13.84-15.6,28.69-27.8,30.12-11,1.3-15.68-6.47-16.78-15.83-.12-1-.27-2.31-.29-3.38.15-21.44,15.89-61.65,39.76-64.45a16,16,0,0,1,10.16,2.11l.58-4.12c1.49-13.6,2.91-25.17,2.72-29.52a23.24,23.24,0,0,0-1-5.21A14.79,14.79,0,0,1,649,3c-.12-1.91,1.71-2.66,3.71-2.89C663.6-1.13,666.15,6,666.37,13.36c.23,6.47-1.67,23-3.67,40.5-.19,2.9-.87,7.14-1.39,11.78-1.65,12.24-3.68,28.57-2.58,37.92a16.71,16.71,0,0,0,.6,3.34c.78,3,2.3,4.11,4.29,3.87,3.47-.41,7.88-4.65,10.24-8.13,6.31-8.94,11.07-22.83,14.28-31.83a79.35,79.35,0,0,1,3.16-8.48,2.89,2.89,0,0,1,1.62-.72c1.16-.13,2,.62,2.65,1.71-1.07,2.69-2.05,6.11-3.18,9.22-3.76,10.68-8.13,23.34-13.54,32.61-4,6.55-9.09,13.43-17.33,14.93C649.22,121.52,643.82,115.44,642.5,104.19Zm.8-24.93c.66-7.11,1.55-15,2.43-22.88.15-1.5.52-2.83.65-4.44a8.11,8.11,0,0,0-5.23-1c-14.82,1.74-26.64,41.82-26.25,54.24.05,4,1.11,9.46,6.06,8.88,9.46-1.11,18.63-24.67,22.44-34.92Z"/><path class="cls-1" d="M688.27,81a53.75,53.75,0,0,1-.48-5.91c-.25-6.69,0-12.79,1.09-17.07a13.57,13.57,0,0,1,10-6.09,16.07,16.07,0,0,1,6.81.8c-.27-15,2.57-31.63,19.29-33.59C738.7,17.55,745.79,29,747.6,44.43a53.42,53.42,0,0,1,.39,6v-.11a92.93,92.93,0,0,1-6.22,34.2c10.57-3.48,15.09-14.88,19.23-25.92l1.82-4.47a5.15,5.15,0,0,1,1.72-.84c.73-.09,1.52.24,2.13,1.88C763.25,67,755.27,88,739.09,90.83c-5.88,11.67-14.66,20.37-25.91,21.69C697.2,114.4,690,96.05,688.27,81Zm19.12-14.18c-.16,2.26-.08,4.81,0,7.14s.2,4.46.45,6.56C709.05,91,712.6,100.33,720,99.47c4.73-.56,8.45-3.34,11.82-8.21C717.31,88.7,710.37,79.49,707.39,66.84Zm28,18c4.43-9.47,6.87-22.33,6.52-33.48a48.45,48.45,0,0,0-.43-5.5c-1.42-12.09-6.67-21.38-16-20.28-6.51.76-8.27,11.2-8,22.57.08,2.55.24,5.73.64,9.09C719.49,69.15,723.48,84,735.4,84.87Z"/><path class="cls-1" d="M97.91,298.73c1.5-2.62,2.65-5.53,4.22-8.49,6.08-12.64,13.24-27,24.39-28.33,7.67-.9,10.65,4.51,10.79,12.06.17,7.76-2.09,18.47-4.23,28.42-2.19,9.53-4.15,19.14-4.05,25.41.23,2.85,1.05,8.08,3.36,7.81,6.63-.77,21.82-42.1,22.71-44.44l.23-.77h-.1c.47-1.44.78-2.44,2.46-2.63a2.91,2.91,0,0,1,2.76,1.7l-2.4,6.78c-6.47,17.6-17.09,47-29.91,48.48-9.67,1.14-13.53-4.48-14.51-12.79a30.36,30.36,0,0,1-.26-3.16c.1-11,3.73-26.34,6.55-37.76,2-7.9,3.64-14.38,3.62-17.26-.06-1.38-.43-1.87-1.17-1.78-7.57.89-20.14,30-24.78,40.42v-.1l-1.34,3.14h.11A79,79,0,0,0,94,336.28a35.79,35.79,0,0,0,2.06,10.31,5.11,5.11,0,0,1,.5,1.54c.14,1.16-.77,1.58-2.24,1.76-10.1,1.18-13.77-7.45-14.78-16.07-.16-1.36-.23-2.85-.3-4.33-.31-9.88,2.35-32.68,4.73-53.21,1.9-16.53,3.66-31.54,3.5-36.54a23.81,23.81,0,0,0-1-5.2,14.89,14.89,0,0,1-.43-1.87c-.12-1.91,1.61-2.64,3.6-2.88,10.62-1.24,13.51,6.09,13.81,13.2.07,4.25-2,23.47-3.75,38.91Z"/><path class="cls-1" d="M153.08,307.5a49.25,49.25,0,0,1-.48-5.91c-.26-6.69,0-12.79,1.08-17.07a13.57,13.57,0,0,1,10-6.09,15.89,15.89,0,0,1,6.81.8c-.27-15,2.58-31.63,19.29-33.59,13.67-1.61,20.77,9.82,22.58,25.27a53.42,53.42,0,0,1,.39,6l0-.11a93.13,93.13,0,0,1-6.21,34.2c10.57-3.48,15.09-14.88,19.23-25.92l1.82-4.47a5.28,5.28,0,0,1,1.71-.85c.74-.08,1.52.25,2.14,1.89-3.41,11.8-11.39,32.77-27.58,35.63C198,329,189.23,337.68,178,339,162,340.88,154.84,322.53,153.08,307.5Zm19.12-14.18c-.17,2.26-.08,4.81,0,7.14s.2,4.46.45,6.56c1.22,10.41,4.77,19.79,12.13,18.93,4.73-.55,8.46-3.34,11.83-8.21C182.11,315.18,175.17,306,172.2,293.32Zm28,18c4.43-9.47,6.86-22.33,6.51-33.48a48.45,48.45,0,0,0-.43-5.5c-1.42-12.09-6.66-21.38-16-20.28-6.52.76-8.28,11.2-8,22.57.09,2.55.25,5.73.64,9.09C184.3,295.63,188.28,310.51,200.21,311.35Z"/><path class="cls-1" d="M223.17,290.86l5.56-15.26c-9.67.18-14.85-7.63-15.12-16.23.2-9.19,5.94-21.16,15.93-22.34,6.2-.72,9.16,2.66,9.59,10,.08,8-2.84,18.56-3.63,21.74a37.48,37.48,0,0,0,9.45-.25c5.78-.68,9.58-1,9.74,5.78a26.73,26.73,0,0,1-.21,3.65l-.55,4.43c-1.23,10.38-3,23.9-2.89,31.68.2,4.45,1.77,7.78,3.26,7.82,7.43-4,18.56-32.55,23.28-45l.23-.77h-.11c.47-1.44.78-2.44,2.36-2.62,1.05-.13,2,.61,2.88,1.79l-.9,2.34c-4.41,12.35-13.78,38.81-22.71,48.07A18.24,18.24,0,0,1,249,331c-7.25.85-11-7.66-12.17-17.44-.18-1.57-.28-3.27-.34-4.75-.21-7.22,2-25.81,4-33.62l-7.18.52c-1.85,5.12-3.76,10.68-5.62,15.69Zm7.29-22.39c1-2.56,3.73-12.69,3.61-18.22-.08-1.59-.15-2.22-.57-2.17-2.21.26-7.09,9.57-6.91,15.62C226.59,266.37,227.66,268.27,230.46,268.47Z"/><path class="cls-1" d="M280.2,257.31a18.94,18.94,0,0,0,0-3,8.19,8.19,0,0,1,0-2c.32-1.84,2.19-2.28,4.24-2,6,1.42,8.93,3.42,9.4,7.42a26.19,26.19,0,0,1-.53,7.31c-1.77,9.37-4.21,27.67-4.21,39.5.06,1.38.16,3.18.3,4.33.58,4.94,1.91,8.09,4.23,7.93,5.89-.69,15.37-25.25,20.67-39.09,1.4-3.58,2.45-6.36,3.31-8.17a3.92,3.92,0,0,1,1.51-.71c1.06-.12,2,.62,2.88,1.79L321,273c-6.2,18-18.88,51.66-31.07,53.09-9.78,1.15-13.92-6.89-15.15-17.4-.2-1.68-.3-3.48-.4-5.18-.44-13.8,2.1-27.53,4.86-41.28l.9-5Zm18.68-22.44c.13,4.78-4,8-7.85,8.48-3.37.4-6.63-2-7.1-7.8-.11-4.57,2.24-10,6.24-10.43,1.78-.21,3.91.61,5.88,2.94A12.76,12.76,0,0,1,298.88,234.87Z"/><path class="cls-1" d="M403.46,259.68c2.16-1.64,3.44-.72,4.45.65l-21.46,52.4a26.73,26.73,0,0,1,.12,2.76c-.21,1-.54,1.76-1.49,1.87-4.56-3.4-11.51-3.65-19.5-2.71-5.26.61-10.89,1.7-16.3,2.76-5,1-9.79,2-13.89,2.48a29.09,29.09,0,0,1-8.85,0c-3.47-.55-5.41-2.56-5.77-5.61-.31-2.62.57-6,3.16-10.28,11.37-18.49,37.69-43,49.41-54l4-3.88a16.38,16.38,0,0,0-3.72.12c-2.42.28-6,.91-9.29,1.62-4.47.95-9.79,2-14.73,2.58-7.46.87-14.73.66-19.46-2.41l-12.54,33c-1.62.73-3.29,1-4.87-.6l14.38-37.28c-.12-2,.11-10,2.68-9.91,1,.2,1.17.93,1.61,1.94l.55,1c1.91,2.66,9.06,2.78,16.95,1.85,5.57-.65,11.41-1.76,16.41-2.67,3.55-.63,6.38-1.07,8.27-1.29,7.48-.77,16.56,2.11,15.92,11.24,0,.85-.33,1.74-1.27,1.86a2.32,2.32,0,0,1-1.43-.37l-.22-.08c-19,13.1-39.47,39.69-52.37,59.65.89.32,2.48.24,4.9-.05,2.95-.34,6.8-1.11,11-1.92,5-.91,10.42-2,15.26-2.54,5.36-.63,10-.75,12.86.62a13.73,13.73,0,0,1,5.47,3.94c1.56-4,3.12-7.93,19.59-46.52Z"/><path class="cls-1" d="M399.92,278.53a53.75,53.75,0,0,1-.48-5.91c-.25-6.68,0-12.79,1.09-17.07a13.53,13.53,0,0,1,10.05-6.08,15.76,15.76,0,0,1,6.81.8c-.27-15,2.57-31.64,19.29-33.6,13.67-1.6,20.76,9.82,22.57,25.27a53.72,53.72,0,0,1,.39,6v-.1a92.92,92.92,0,0,1-6.22,34.19c10.57-3.48,15.09-14.88,19.23-25.91l1.82-4.48a5.36,5.36,0,0,1,1.72-.84c.73-.09,1.52.25,2.14,1.88-3.41,11.8-11.4,32.78-27.58,35.64C444.86,300,436.08,308.72,424.83,310,408.85,311.91,401.69,293.57,399.92,278.53ZM419,264.35c-.16,2.26-.08,4.81,0,7.15s.2,4.45.45,6.55c1.22,10.41,4.77,19.8,12.13,18.93,4.73-.55,8.45-3.33,11.82-8.2C429,286.21,422,277,419,264.35Zm28,18c4.43-9.47,6.87-22.33,6.52-33.48a48.27,48.27,0,0,0-.43-5.49c-1.42-12.09-6.67-21.39-16-20.29-6.52.76-8.28,11.2-8,22.57.08,2.55.24,5.73.64,9.1C431.14,266.66,435.13,281.54,447.05,282.38Z"/><path class="cls-1" d="M489.1,252.83c1.41-2.51,2.65-5.53,4.22-8.49,6.08-12.65,13.24-27,24.39-28.33,7.78-.91,10.64,4.4,10.9,12,.28,7.85-2,18.56-4.41,28.76-2,9.29-4,19-4,25.09.22,2.85,1,8.08,3.36,7.81,6.11-.61,20-37.31,22.47-43.78a1.83,1.83,0,0,1,.24-.66l.32-.89c.49-1.34.8-2.34,2.27-2.51a2.84,2.84,0,0,1,2.86,1.69c-.75,1.79-1.82,4.48-2.59,7-6.36,17.48-16.68,46.72-29.72,48.25-9.67,1.13-13.64-4.58-14.62-12.89a28.71,28.71,0,0,1-.25-3.06c0-11,3.62-26.32,6.55-37.75,1.95-7.9,3.64-14.39,3.62-17.26-.06-1.38-.43-1.87-1.17-1.78-7.57.88-20.14,30-24.78,40.42v-.11l-1.34,3.14h.11a75.66,75.66,0,0,0-2.35,20.85,32.68,32.68,0,0,0,.28,3.27,26.32,26.32,0,0,0,1.79,7.14,4.6,4.6,0,0,1,.49,1.44c.14,1.15-.77,1.58-2.14,1.74-10.2,1.2-13.87-7.43-14.88-16.05-.17-1.37-.23-2.85-.3-4.34-.34-9.23,1.05-21,2.33-30.11,1-7.69,1.88-14.82,1.75-19.6a24.62,24.62,0,0,0-1-5.21,13.53,13.53,0,0,1-.42-1.76c-.12-1.91,1.7-2.76,3.7-3,10.62-1.24,13.41,6.21,13.7,13.21a61.94,61.94,0,0,1-.8,11.39C489.42,250.13,489.16,251.54,489.1,252.83Z"/><path class="cls-1" d="M566.83,201.4c12.29-1.55,23.31-.29,29.4,9.87h-.1a1.72,1.72,0,0,1-2.06,2.48c-6.47-5.21-15.59-5.74-25.37-4.59l-2.63.31c-.64,6.36-1.57,13-2.48,19.69l-1.06,8.22-.16,1.41c-1,7.47-3.71,27.4-2.34,39.06.47,4,1.38,7.2,3.19,8.16,1.38.79,4.23-.29,7.88-3.7,7.92-8,14-25,17.67-35.64h-.11c1.44-4.11,2.65-7.45,4-9.53.09-.12.52-.17,1.15-.24a2.62,2.62,0,0,1,2.65,1.71L593.6,247h.1c-6.83,19.88-16.05,46.65-31.29,48.43-12.51,1.47-17.48-4.55-18.78-15.59-.17-1.47-.25-3.06-.34-4.76-.3-9.77,2.57-35.26,4.93-56l.77-6.16c-4.68,1-9,1.8-13,2.28-8.52,1-15.65.13-19-5.34-.8-1.4-1-4,1.81-2.78l-.12-.09c4.41,1.3,9.53,1.34,14.9.71,5-.6,11-1.93,16.36-3.1.87-9,1.61-16.28,1.58-19.26a23.45,23.45,0,0,0-1-5.21,14.79,14.79,0,0,1-.43-1.86c0-2,1.61-2.65,3.61-2.88,10.93-1.28,13.58,5.87,13.8,13.19A121,121,0,0,1,566.83,201.4Z"/><path class="cls-1" d="M612.2,291c-14.61,1.72-21.53-10.9-23.23-25.41a48.09,48.09,0,0,1-.43-5.49v.11c-.76-23.68,11.32-53.34,30.77-55.62,12.3-1.45,21,9.25,21.7,20.47.06,16-17.61,28.92-31.44,33.64a74.59,74.59,0,0,0-.25,7.81,33.8,33.8,0,0,0,.3,3.48c.71,6.1,3.09,11.79,10,11.51C630.3,280,637,264.78,641.35,255.21l0,.11c2.68-6.18,4.92-12.52,6.69-17.41.81-2.23,2.14-5.37,3-7.49a6.38,6.38,0,0,1,1.52-.71,2.78,2.78,0,0,1,2.75,1.7l-.78,2.44c-1.91,5.44-4.9,13.57-8.42,21.77C640.22,270.05,631.75,288.74,612.2,291Zm17.21-74.92c-8.2,1-17.88,27.47-19.13,36.78,9.31-2.37,26.22-13.63,25.79-26.37a13.9,13.9,0,0,0-2.52-7.8C632.26,216.74,630.78,216,629.41,216.11Z"/><path class="cls-1" d="M654,184.13c4.84-.56,9.51,1.12,10.18,6.8.5,4.31-1.13,10.37-3,17-.89,3.3-1.88,6.72-2.64,10.22,12.73,14.92,24.39,31.67,25.75,41.42a264.61,264.61,0,0,0,12.84-30.49c.08-.22.25-.56.25-.56l.64-1.78h-.1c.47-1.44.78-2.44,2.36-2.62a3,3,0,0,1,3,1.78l-.49,1.33-.28.36c-4.64,13.12-14.61,40.72-24.77,50.44a48.3,48.3,0,0,1-23.93,10.37c-9.26,1.09-16.91-1.43-17.12-8.75,0-2,1.78-4.79,4-5.05,1.69-.2,1.91,1.69,2,3.39.43,4.53,5.45,4.68,9.53,4,11.09-1.73,15-9.43,14.05-21-1-7.45-6.53-19.27-12.73-26.75l-3.41,10.95-3.94-.92,4-13.8a41,41,0,0,1-11.11-22.89c-.79-6.73.54-13.6,5.67-18.89A15.2,15.2,0,0,1,654,184.13Zm1.54,27.64c1.9-6.51,4.48-16.3,3.16-18.49h.1c-.52-.79-1-1.16-1.52-1.21-2.47-.14-5.36,8.84-4.49,16.3a15.43,15.43,0,0,0,2,6.06Z"/><path class="cls-1" d="M707.61,268.54c-.31,4.62-4.43,7.66-8.11,8.09-3.26.38-6.13-1.41-5.78-7.52.32-4.52,2.91-9.72,6.59-10.16,1.68-.19,3.47.55,5.24,2.9A10.2,10.2,0,0,1,707.61,268.54Zm-5.78-91.94a35.71,35.71,0,0,0,.58-12.32c.08-2-1.15-3.49-1.1-3.92-.32-.92.79-1.48,2-1.3,4.41.34,7.16.12,8.69,2.28,4,4,2.84,15.12,2.47,19.22-4,32.44-4.92,44.38-5.34,48.05a46,46,0,0,0-.91,14.07,9.29,9.29,0,0,0,1.27,4.43c.12,1-1,1.72-2.06,1.52-4.21-.46-7.48-1-9-3.63-3.73-4.58-1.6-16.44-1.19-21.07C700.6,190.6,701.57,179.83,701.83,176.6Z"/></g></g></svg>